<svg width="81" height="80" viewBox="0 0 81 80" fill="none" xmlns="http://www.w3.org/2000/svg">
<g clip-path="url(#clip0_106_2188)">
<path d="M58.9433 2.05263e-05C60.9351 0.590588 62.1499 2.18735 63.3756 3.66377C63.8834 4.33841 64.1478 5.16485 64.1259 6.00872C64.104 6.85259 63.7973 7.66426 63.2553 8.31175C62.9948 8.63602 62.7132 8.94286 62.4126 9.23037L45.7779 25.8428C45.5343 26.0461 45.2744 26.229 45.0009 26.3896L45.1651 26.674H60.4865C61.8148 26.5575 63.1386 26.9418 64.1978 27.7513C65.2569 28.5608 65.9747 29.737 66.2101 31.0486C67.0746 34.2311 67.9173 37.4245 68.7709 40.607C68.8256 40.8367 68.9023 41.0554 69.0008 41.3945C69.527 40.8355 70.182 40.4137 70.9088 40.1658C71.6356 39.918 72.412 39.8517 73.1703 39.9727C74.1334 39.9727 75.0965 39.9727 76.0595 39.9727C77.1011 39.9839 78.0973 40.4001 78.8369 41.1331C79.5765 41.866 80.0013 42.8581 80.0212 43.8989C80.065 44.5215 80.065 45.1464 80.0212 45.769C79.9072 46.7352 79.446 47.627 78.7233 48.2788C78.0007 48.9306 77.0658 49.2979 76.0924 49.3124H74.6696C76.1908 51.2154 76.0595 53.3152 76.0486 55.3931C76.0486 59.4286 76.0486 63.4642 76.0486 67.4997C76.1143 68.335 75.9285 69.1708 75.515 69.8997C75.1016 70.6286 74.4794 71.2172 73.7285 71.5899C73.6262 71.6701 73.5421 71.771 73.4817 71.886C73.4214 72.001 73.3862 72.1274 73.3783 72.257C73.3783 73.46 73.3783 74.6521 73.3783 75.8551C73.3985 76.4033 73.3047 76.9498 73.103 77.4601C72.9013 77.9703 72.5959 78.4332 72.2062 78.8196C71.8165 79.2059 71.3509 79.5074 70.8388 79.7049C70.3266 79.9025 69.779 79.9918 69.2306 79.9672C67.9501 79.9672 66.6697 79.9672 65.4002 79.9672C64.3712 79.9791 63.3785 79.5872 62.6357 78.8755C61.8928 78.1638 61.4591 77.1893 61.4276 76.1613C61.3619 75.0677 61.4276 73.9741 61.4276 72.8804V72.0055H37.3621V75.527C37.4244 76.1273 37.3514 76.734 37.1488 77.3025C36.9461 77.871 36.6187 78.387 36.1906 78.8128C35.7625 79.2385 35.2445 79.5631 34.6746 79.7628C34.1047 79.9626 33.4973 80.0324 32.8969 79.9672H29.373C28.8433 79.9701 28.3184 79.868 27.8284 79.6668C27.3385 79.4655 26.8934 79.1692 26.5188 78.7949C26.1443 78.4206 25.8477 77.9758 25.6464 77.4862C25.445 76.9966 25.3429 76.4719 25.3458 75.9426C25.3458 74.7177 25.3458 73.4929 25.3458 72.2789C25.3244 72.1301 25.2726 71.9872 25.1935 71.8592C25.1144 71.7312 25.0098 71.621 24.8861 71.5353C24.2099 71.1818 23.6465 70.6461 23.2596 69.9888C22.8727 69.3316 22.6779 68.5791 22.6973 67.8168C22.6973 63.0048 22.6973 58.1928 22.6973 53.3698C22.679 51.8672 23.1681 50.4024 24.0855 49.2118C25.0029 48.0211 26.295 47.1743 27.7534 46.8079C27.9076 46.7494 28.0483 46.66 28.1668 46.5453C28.2854 46.4306 28.3793 46.293 28.4428 46.1408C28.6767 45.4222 28.874 44.6921 29.0338 43.9535H28.027C20.3663 43.9535 12.7056 43.9535 5.04489 43.9535C2.56063 43.9535 0.809643 43.1442 0.0107422 40.6726V3.28095C0.206543 2.48686 0.615941 1.76141 1.19463 1.18311C1.77333 0.60481 2.49927 0.195689 3.2939 2.05263e-05H34.1009C36.7055 1.09366 37.384 2.05605 37.384 4.89952V18.9748L37.6028 19.0841C37.7808 18.835 37.9745 18.5975 38.1829 18.3732C43.5891 12.9706 48.999 7.56076 54.4126 2.14359C55.2227 1.19008 56.2462 0.44074 57.4002 -0.0437012L58.9433 2.05263e-05ZM34.7355 34.8544C34.4401 34.9638 34.1884 35.0404 33.9586 35.1388C32.3389 35.7731 30.6754 36.4074 29.0994 37.0746C27.5235 37.7417 24.6234 37.4463 23.6275 35.7293C23.1898 35.0185 22.4237 35.0841 21.8656 35.7293C21.3971 36.2691 20.8181 36.7021 20.1676 36.9988C19.5172 37.2955 18.8105 37.449 18.0955 37.449C17.3805 37.449 16.6738 37.2955 16.0233 36.9988C15.3729 36.7021 14.7937 36.2691 14.3252 35.7293C13.7562 35.0731 13.0667 35.0185 12.5523 35.7293C11.3704 37.3479 9.68508 37.4463 7.92312 37.3042C7.60303 37.2483 7.31474 37.0767 7.11302 36.8222C6.9113 36.5676 6.81022 36.2477 6.82914 35.9236C6.84806 35.5994 6.98565 35.2935 7.21562 35.0641C7.44559 34.8347 7.75193 34.6978 8.07635 34.6795C8.49157 34.7124 8.90875 34.7124 9.32397 34.6795C9.69905 34.6459 10.0508 34.4836 10.3198 34.2202C10.6689 33.7215 11.1332 33.3144 11.6733 33.0333C12.2134 32.7522 12.8135 32.6054 13.4224 32.6054C14.0314 32.6054 14.6313 32.7522 15.1714 33.0333C15.7115 33.3144 16.1759 33.7215 16.525 34.2202C16.9649 34.58 17.516 34.7765 18.0845 34.7765C18.653 34.7765 19.204 34.58 19.6439 34.2202C19.9891 33.7127 20.4533 33.2972 20.996 33.0101C21.5387 32.723 22.1435 32.5729 22.7576 32.5729C23.3716 32.5729 23.9763 32.723 24.519 33.0101C25.0617 33.2972 25.5259 33.7127 25.8711 34.2202C25.9139 34.2886 25.9697 34.348 26.0352 34.3951C26.132 34.5143 26.2607 34.6035 26.4064 34.6524C26.552 34.7012 26.7085 34.7077 26.8576 34.671C27.0068 34.6343 27.1424 34.556 27.2487 34.4452C27.3549 34.3344 27.4275 34.1956 27.4579 34.0451C27.9175 32.9515 28.4537 31.8579 28.8149 30.6439C29.719 27.3674 31.6337 24.4589 34.2868 22.3322C34.4659 22.1853 34.6064 21.997 34.696 21.7835C34.7856 21.57 34.8218 21.3379 34.8013 21.1073C34.8013 15.6391 34.8013 10.0725 34.8013 4.54961C34.8013 3.06226 34.3853 2.64662 32.8969 2.64662H4.69474C3.15166 2.64662 2.76861 3.04036 2.76861 4.59334V39.2618C2.76861 40.9789 3.10788 41.3179 4.82606 41.3179H32.7219C32.9807 41.3343 33.2401 41.3343 33.4989 41.3179C33.6698 41.3179 33.8391 41.2838 33.9967 41.2174C34.1542 41.1511 34.2968 41.0539 34.4161 40.9315C34.5355 40.8092 34.6291 40.6643 34.6915 40.5053C34.7538 40.3462 34.7837 40.1763 34.7794 40.0055C34.7356 38.3104 34.7355 36.6152 34.7355 34.8544ZM73.3892 61.3316H72.3605C69.2306 61.3316 66.1116 61.3316 62.9817 61.3316C62.4889 61.3803 61.9921 61.2906 61.5476 61.0725C61.103 60.8544 60.7283 60.5165 60.4655 60.0971C60.2027 59.6776 60.0624 59.1931 60.0603 58.6982C60.0582 58.2033 60.1944 57.7177 60.4536 57.296C60.8038 56.5742 61.1868 55.8633 61.548 55.1087C61.7768 54.536 62.1824 54.0511 62.7059 53.7246C63.2295 53.3981 63.8437 53.2469 64.4591 53.2932C66.7792 53.2932 69.0992 53.2932 71.4193 53.2932H73.433C73.4072 52.9594 73.3633 52.6272 73.3017 52.298C73.0722 51.3931 72.5302 50.5983 71.7712 50.054C71.0123 49.5097 70.0852 49.2509 69.1539 49.3234H29.6904C29.4278 49.3234 29.1652 49.3234 28.9135 49.3234C27.9522 49.4327 27.0673 49.8995 26.4347 50.631C25.8021 51.3625 25.4681 52.3051 25.499 53.2714H34.4619C34.8677 53.2058 35.2836 53.2481 35.6678 53.394C36.0519 53.5399 36.3909 53.7843 36.6507 54.1026C37.4822 55.3523 38.1549 56.7005 38.6534 58.1162C39.1787 59.8223 37.8108 61.2659 35.8737 61.2769C32.7219 61.2769 29.5701 61.2769 26.4182 61.2769H25.4223V67.2044C25.4223 68.9214 25.7725 69.2824 27.4688 69.2824H71.4632C71.747 69.3102 72.0328 69.3102 72.3167 69.2824C72.6091 69.2607 72.8831 69.1312 73.0854 68.919C73.2876 68.7067 73.4037 68.427 73.4111 68.134C73.3673 65.9139 73.3455 63.6829 73.3455 61.3316H73.3892ZM67.5671 46.633C67.4905 46.3268 67.4467 46.0752 67.381 45.8346L63.6383 31.8251C63.1239 29.9331 62.3578 29.3425 60.4207 29.3425H45.7342C44.6398 29.3425 43.3045 29.0472 42.3305 29.4628C41.3565 29.8784 40.6233 31.0048 39.7806 31.8141C39.1834 32.4248 38.5394 32.9879 37.8545 33.4983C37.6873 33.5792 37.5476 33.7072 37.4523 33.8666C37.357 34.0259 37.3104 34.2097 37.3183 34.3951C37.3183 36.2434 37.3183 38.0916 37.3183 39.9399C37.3349 40.9547 36.9619 41.9374 36.276 42.6859C35.5901 43.4344 34.6433 43.8919 33.6302 43.9645C33.1706 43.9645 32.6999 43.9645 32.2294 43.9645C32.0433 43.9645 31.7479 44.1067 31.7041 44.2488C31.4633 45.0035 31.2773 45.7799 31.0584 46.622C32.3607 46.622 33.5646 46.622 34.7575 46.622C35.1637 46.5802 35.5465 46.4119 35.8518 46.1408C39.0037 43.0349 42.1336 39.8961 45.2635 36.7683C45.4396 36.5758 45.6298 36.3966 45.8326 36.2324C46.0924 36.0549 46.4057 35.9731 46.7191 36.0011C47.0326 36.029 47.3265 36.1649 47.5507 36.3856C47.7749 36.6094 47.9097 36.9073 47.9299 37.2234C47.95 37.5395 47.8543 37.8521 47.6603 38.1026C47.496 38.3052 47.3166 38.4953 47.1239 38.6712L39.8901 45.9003L39.1788 46.6439H40.1527C42.3415 46.6439 44.5303 46.6439 46.6425 46.6439C46.8848 46.6538 47.1263 46.6098 47.3496 46.5152C47.5728 46.4207 47.7724 46.2779 47.9339 46.0971C51.0274 42.9839 54.139 39.8706 57.2689 36.7574C57.4592 36.5453 57.6721 36.3547 57.9037 36.1887C58.1428 36.0244 58.4313 35.9477 58.7205 35.9716C59.0097 35.9955 59.2817 36.1186 59.4905 36.3199C59.7297 36.51 59.8892 36.7824 59.9378 37.0838C59.9864 37.3853 59.9205 37.694 59.7532 37.9495C59.5943 38.1866 59.4068 38.4033 59.195 38.5947L51.8517 45.944C51.6657 46.1299 51.5015 46.3268 51.2607 46.5893L67.5671 46.633ZM37.384 30.2283L55.9885 11.6364L52.4318 8.08206L33.7615 26.674L37.384 30.2283ZM27.9831 72.0165C27.9831 73.4054 27.9831 74.6958 27.9831 75.9863C27.9802 76.1571 28.0116 76.3268 28.0753 76.4853C28.139 76.6438 28.2339 76.7879 28.3543 76.9092C28.4746 77.0305 28.6181 77.1265 28.7761 77.1915C28.9342 77.2565 29.1037 77.2893 29.2746 77.2878C30.6316 77.2878 31.9777 77.2878 33.3237 77.2878C33.4889 77.2966 33.6541 77.2723 33.8096 77.2162C33.9651 77.1601 34.1078 77.0734 34.2292 76.9612C34.3507 76.8491 34.4484 76.7137 34.5166 76.5632C34.5848 76.4126 34.622 76.25 34.6261 76.0848C34.6261 74.7396 34.6261 73.4054 34.6261 72.0165H27.9831ZM64.0978 72.0165C64.0978 73.4382 64.0978 74.7833 64.0978 76.1285C64.1018 76.2923 64.1392 76.4537 64.2078 76.6026C64.2763 76.7515 64.3745 76.8848 64.4965 76.9943C64.6184 77.1039 64.7615 77.1874 64.9169 77.2398C65.0723 77.2921 65.2368 77.3122 65.4002 77.2987C66.7244 77.2987 68.0596 77.2987 69.3838 77.2987C69.5302 77.3201 69.6794 77.3117 69.8224 77.2739C69.9654 77.2361 70.0992 77.1697 70.2158 77.0787C70.3324 76.9877 70.4295 76.874 70.5009 76.7446C70.5723 76.6151 70.6167 76.4725 70.6314 76.3254C70.719 74.8927 70.6314 73.4491 70.6314 72.0055L64.0978 72.0165ZM58.2867 9.58035C59.1732 8.69449 60.1034 7.80862 60.9789 6.88996C61.1195 6.77087 61.2325 6.62262 61.31 6.45548C61.3875 6.28833 61.4277 6.10636 61.4277 5.92214C61.4277 5.73793 61.3875 5.55588 61.31 5.38874C61.2325 5.22159 61.1195 5.07335 60.9789 4.95426C60.377 4.30901 59.7532 3.67466 59.1075 3.07316C58.9916 2.94615 58.8505 2.84473 58.6931 2.77531C58.5358 2.7059 58.3657 2.66998 58.1937 2.66998C58.0217 2.66998 57.8516 2.7059 57.6942 2.77531C57.5369 2.84473 57.3957 2.94615 57.2798 3.07316C56.3168 3.98088 55.4084 4.94332 54.522 5.8401L58.2867 9.58035ZM25.3895 58.6084H35.9722C35.6111 57.8756 35.2718 57.2303 34.9872 56.5742C34.9203 56.3799 34.7872 56.2155 34.6112 56.1095C34.4351 56.0035 34.2272 55.9628 34.0242 55.9946C31.3758 55.9946 28.7164 55.9946 26.068 55.9946C25.8382 55.9946 25.6193 55.9946 25.3895 56.0492V58.6084ZM73.3126 56.093C73.2281 56.0581 73.14 56.0324 73.05 56.0165H64.47C64.3059 56.0165 64.0541 56.0711 63.9884 56.1805C63.5616 56.957 63.1786 57.7663 62.7408 58.6193H73.3126V56.093ZM70.708 46.5783C70.8612 46.6439 70.9049 46.6767 70.9597 46.6767H75.0855C77.132 46.6767 77.4056 46.3924 77.3837 44.3254V44.0957C77.3966 43.9057 77.3687 43.7151 77.3018 43.5368C77.2349 43.3584 77.1305 43.1964 76.9957 43.0617C76.861 42.927 76.6989 42.8227 76.5204 42.7558C76.3419 42.689 76.1512 42.6611 75.9611 42.674C74.6916 42.674 73.4112 42.674 72.1417 42.674C71.9584 42.6571 71.7737 42.6789 71.5994 42.7379C71.4252 42.797 71.2653 42.892 71.1301 43.0168C70.9949 43.1415 70.8874 43.2933 70.8147 43.4622C70.742 43.6311 70.7057 43.8134 70.708 43.9973C70.6642 44.8394 70.708 45.6706 70.708 46.5564V46.5783ZM30.4128 33.6405L34.9544 31.8251L32.2403 29.091L30.4128 33.6405Z" fill="#333333"/>
<path d="M18.7685 17.3342H29.001C30.0954 17.3342 30.6645 17.8044 30.6645 18.6465C30.6645 19.4887 30.0845 19.9918 29.0229 19.9918H8.3171C7.22271 19.9918 6.68649 19.4996 6.69743 18.6357C6.70837 17.7717 7.26647 17.3342 8.29519 17.3342H18.7685Z" fill="#3A9C3E"/>
<path d="M18.6919 25.3178H8.61261C8.38279 25.3178 8.14201 25.3178 7.91219 25.3178C7.59693 25.3022 7.29864 25.1707 7.07443 24.9487C6.85023 24.7266 6.71594 24.4296 6.69744 24.1148C6.66552 23.7845 6.76107 23.4546 6.96449 23.1923C7.1679 22.9301 7.46382 22.7554 7.79182 22.704C8.0501 22.6765 8.31052 22.6765 8.56879 22.704H28.804C29.0622 22.6767 29.3228 22.6767 29.5811 22.704C29.905 22.7553 30.1975 22.9268 30.4004 23.1842C30.6033 23.4417 30.7015 23.7662 30.6754 24.0929C30.6627 24.4081 30.5338 24.7075 30.3137 24.9336C30.0935 25.1597 29.7974 25.2965 29.4825 25.3178C29.2526 25.3178 29.012 25.3178 28.7822 25.3178H18.6919Z" fill="#3A9C3E"/>
<path d="M18.659 12.0081H29.1212C29.4346 11.9642 29.7536 12.0294 30.0246 12.1927C30.2956 12.356 30.5021 12.6074 30.6096 12.9049C30.6691 13.0843 30.6897 13.2744 30.6701 13.4625C30.6505 13.6505 30.5911 13.8322 30.4959 13.9956C30.4007 14.159 30.2718 14.3003 30.1178 14.4101C29.9639 14.52 29.7884 14.5959 29.6028 14.6328C29.3699 14.6546 29.1354 14.6546 28.9024 14.6328H7.96683C7.78996 14.6259 7.61621 14.5836 7.45597 14.5085C7.29574 14.4333 7.15217 14.3269 7.03382 14.1953C6.91547 14.0638 6.82472 13.9099 6.76691 13.7428C6.70909 13.5756 6.68547 13.3985 6.69731 13.222C6.69995 13.0521 6.73702 12.8844 6.80632 12.7292C6.87561 12.5739 6.9757 12.4344 7.10049 12.3188C7.22527 12.2033 7.37221 12.1144 7.53239 12.0572C7.69257 12 7.86265 11.9759 8.03242 11.9862C9.69589 11.9862 11.3704 11.9862 13.0338 11.9862L18.659 12.0081Z" fill="#3A9C3E"/>
<path d="M18.7135 6.68208H28.7819C29.0406 6.66554 29.3001 6.66554 29.5589 6.68208C29.8401 6.70879 30.1031 6.83259 30.3028 7.03219C30.5026 7.23179 30.6265 7.49471 30.6532 7.77572C30.7071 8.06158 30.6544 8.35726 30.5052 8.60704C30.3561 8.85681 30.1207 9.04351 29.8434 9.1319C29.521 9.23048 29.1844 9.27483 28.8475 9.26313H8.53577C8.32798 9.27406 8.11968 9.27406 7.91189 9.26313C7.56929 9.23786 7.25019 9.07944 7.0231 8.82184C6.79602 8.56424 6.67903 8.22795 6.69714 7.88513C6.69698 7.71526 6.73123 7.5471 6.79787 7.39084C6.86451 7.23457 6.9621 7.09345 7.08482 6.97592C7.20755 6.85838 7.35285 6.76687 7.51192 6.70698C7.67098 6.64709 7.84053 6.62002 8.01035 6.62741C8.78736 6.62741 9.57534 6.62741 10.3523 6.62741L18.7135 6.68208Z" fill="#3A9C3E"/>
<path d="M49.411 58.652H55.6599C56.0718 58.5978 56.4906 58.6393 56.8839 58.7731C57.2771 58.9069 57.6343 59.1295 57.9275 59.4236C58.2207 59.7177 58.4421 60.0753 58.5746 60.4688C58.7071 60.8622 58.7471 61.281 58.6914 61.6924C58.6914 62.447 58.6914 63.2015 58.6914 63.9561C58.7034 64.3099 58.6431 64.6624 58.5141 64.992C58.3851 65.3217 58.1902 65.6216 57.9413 65.8734C57.6923 66.1252 57.3946 66.3237 57.0664 66.4566C56.7381 66.5895 56.3861 66.6542 56.032 66.6465C51.5742 66.6903 47.1201 66.6903 42.6696 66.6465C42.3085 66.652 41.9503 66.5824 41.6177 66.4421C41.285 66.3019 40.985 66.0941 40.737 65.8318C40.489 65.5696 40.2984 65.2587 40.177 64.9188C40.0556 64.579 40.0062 64.2177 40.0321 63.8577C40.0321 63.0813 40.0321 62.2938 40.0321 61.5173C40.0014 61.1385 40.0527 60.7575 40.1826 60.4002C40.3125 60.0429 40.5178 59.7178 40.7847 59.447C41.0516 59.1762 41.3738 58.9659 41.7292 58.8306C42.0847 58.6953 42.4652 58.6381 42.8447 58.6629C45.0335 58.6301 47.2222 58.652 49.411 58.652ZM42.7134 63.9561H55.9554V61.3971H42.7134V63.9561Z" fill="#333333"/>
<path d="M49.3237 55.9726C48.4701 55.9726 47.6055 55.9726 46.7519 55.9726C46.4007 55.9726 46.0639 55.8332 45.8156 55.585C45.5672 55.3369 45.4277 55.0003 45.4277 54.6493C45.4277 54.2984 45.5672 53.9618 45.8156 53.7136C46.0639 53.4654 46.4007 53.326 46.7519 53.326C48.5248 53.326 50.2977 53.326 52.0706 53.326C52.2485 53.318 52.4261 53.3475 52.5919 53.4126C52.7576 53.4776 52.9078 53.5768 53.0327 53.7037C53.1576 53.8305 53.2544 53.9822 53.3167 54.1489C53.3791 54.3156 53.4058 54.4935 53.3949 54.6712C53.4016 54.8486 53.3706 55.0255 53.304 55.1901C53.2375 55.3547 53.1369 55.5033 53.0087 55.6263C52.8805 55.7492 52.7277 55.8436 52.5603 55.9033C52.393 55.963 52.215 55.9866 52.0379 55.9726C51.1514 55.9945 50.2101 55.9726 49.3237 55.9726Z" fill="#333333"/>
<path d="M33.641 43.9645C34.6541 43.8919 35.6009 43.4344 36.2868 42.6859C36.9728 41.9374 37.3457 40.9547 37.3291 39.9399C37.3291 38.0916 37.3291 36.2434 37.3291 34.3951C37.3212 34.2097 37.3678 34.0259 37.4631 33.8666C37.5584 33.7072 37.6982 33.5792 37.8653 33.4983C38.5503 32.9879 39.1943 32.4248 39.7915 31.8141C40.6341 31.0048 44.9788 26.3459 44.9788 26.3459C45.2524 26.1852 45.5122 26.0023 45.7558 25.7991L62.3905 9.18665C62.6912 8.89914 62.9727 8.59223 63.2332 8.26796C63.7752 7.62047 64.082 6.8088 64.1039 5.96493C64.1257 5.12106 63.8614 4.29462 63.3536 3.61998C62.1279 2.13262 60.9131 0.546866 58.9213 -0.0437012H57.3564C56.2024 0.44074 55.1787 1.19008 54.3686 2.14359C48.9624 7.56806 43.5525 12.9779 38.1389 18.3732C37.9306 18.5975 37.7368 18.835 37.5589 19.0841L37.3401 18.9748V4.89952C37.3401 2.05605 36.6725 1.04992 34.0569 2.05263e-05H3.24995C2.45532 0.195689 1.72938 0.60481 1.15069 1.18311C0.571996 1.76141 0.162598 2.48686 -0.0332031 3.28095V40.7711C0.765698 43.2208 2.51669 44.052 5.00094 44.052C12.6616 43.9864 20.3223 44.052 27.983 44.052C28.0159 44.0083 33.2142 44.0192 33.641 43.9645ZM57.3016 3.01849C57.4175 2.89148 57.5587 2.79 57.716 2.72058C57.8734 2.65116 58.0434 2.61531 58.2154 2.61531C58.3874 2.61531 58.5575 2.65116 58.7149 2.72058C58.8722 2.79 59.0134 2.89148 59.1293 3.01849C59.775 3.61999 60.3987 4.25427 61.0007 4.89952C61.1413 5.01861 61.2543 5.16692 61.3318 5.33407C61.4093 5.50121 61.4494 5.68319 61.4494 5.86741C61.4494 6.05162 61.4093 6.23367 61.3318 6.40081C61.2543 6.56795 61.1413 6.7162 61.0007 6.83529C60.1251 7.75395 59.195 8.63983 58.3085 9.52568L54.5657 5.77449C55.4302 4.91051 56.3386 3.94808 57.3016 3.01849ZM52.5192 8.02739L56.0759 11.5817L37.4714 30.1737L33.9037 26.6084L52.5192 8.02739ZM35.009 31.8251L30.4673 33.6405C31.1349 31.9891 31.7149 30.5236 32.295 29.091L35.009 31.8251ZM4.72734 41.296C3.00916 41.296 2.66989 40.957 2.66989 39.2399V4.57144C2.66989 3.01847 3.05294 2.62479 4.59602 2.62479H32.7983C34.2867 2.62479 34.7026 3.04036 34.7026 4.52772C34.7026 10.0506 34.7026 15.5626 34.7026 21.0855C34.7231 21.3161 34.6871 21.5481 34.5974 21.7616C34.5078 21.9751 34.3673 22.1635 34.1882 22.3104C31.5352 24.4371 29.6205 27.3455 28.7163 30.622C28.3552 31.7922 27.8189 32.8968 27.3593 34.0232C27.3289 34.1737 27.2564 34.3125 27.1501 34.4233C27.0438 34.5341 26.9081 34.6124 26.7589 34.6491C26.6098 34.6858 26.4533 34.6793 26.3076 34.6305C26.162 34.5816 26.0333 34.4924 25.9365 34.3732C25.871 34.3261 25.8153 34.2667 25.7725 34.1983C25.4273 33.6908 24.9631 33.2753 24.4204 32.9882C23.8777 32.7011 23.2729 32.551 22.6588 32.551C22.0448 32.551 21.4401 32.7011 20.8974 32.9882C20.3547 33.2753 19.8905 33.6908 19.5454 34.1983C19.1054 34.5581 18.5543 34.7547 17.9858 34.7547C17.4173 34.7547 16.8664 34.5581 16.4264 34.1983C16.0773 33.6996 15.6129 33.2925 15.0728 33.0114C14.5327 32.7303 13.9328 32.5835 13.3238 32.5835C12.7149 32.5835 12.1148 32.7303 11.5747 33.0114C11.0346 33.2925 10.5703 33.6996 10.2212 34.1983C9.95225 34.4617 9.60033 34.624 9.22525 34.6576C8.81003 34.6905 8.39298 34.6905 7.97777 34.6576C7.65334 34.6759 7.34687 34.8129 7.1169 35.0423C6.88693 35.2717 6.74948 35.5776 6.73055 35.9017C6.71163 36.2259 6.81258 36.5457 7.0143 36.8003C7.21602 37.0548 7.50445 37.2264 7.82454 37.2823C9.5865 37.4245 11.2718 37.2823 12.4538 35.7075C12.9681 35.0076 13.6576 35.0622 14.2267 35.7075C14.6951 36.2473 15.2741 36.6802 15.9246 36.9769C16.5751 37.2736 17.2817 37.4271 17.9968 37.4271C18.7118 37.4271 19.4184 37.2736 20.0689 36.9769C20.7194 36.6802 21.2985 36.2473 21.767 35.7075C22.3251 35.0622 23.0912 34.9966 23.5289 35.7075C24.5577 37.4245 27.5015 37.676 29.0009 37.0527C30.5002 36.4293 32.2839 35.7512 33.8599 35.1169C34.0897 35.0185 34.3415 34.942 34.637 34.8326C34.637 36.5934 34.637 38.2885 34.637 39.9727C34.6413 40.1434 34.6114 40.3134 34.5491 40.4724C34.4867 40.6315 34.3931 40.7765 34.2737 40.8988C34.1544 41.0211 34.0118 41.1182 33.8542 41.1846C33.6967 41.2509 33.5274 41.2851 33.3565 41.285C33.0977 41.3014 32.8383 41.3014 32.5795 41.285L4.72734 41.296Z" fill="#3A9C3E"/>
</g>
<defs>
<clipPath id="clip0_106_2188">
<rect width="80.0542" height="80" fill="white"/>
</clipPath>
</defs>
</svg>
