<svg width="81" height="80" viewBox="0 0 81 80" fill="none" xmlns="http://www.w3.org/2000/svg">
<g clip-path="url(#clip0_106_2212)">
<path d="M68.0065 79.9999C67.6239 79.8034 67.3125 79.4921 67.1162 79.1096C66.9199 78.7271 66.8486 78.2927 66.9122 77.8676C66.9122 76.6757 66.9122 75.4838 66.9122 74.1935L62.5353 74.8933C54.0659 76.2821 45.5964 77.6489 37.127 79.0814C34.6626 79.6693 32.0877 79.6091 29.6535 78.9064C28.8128 78.6148 27.9999 78.2488 27.2243 77.8129C21.9501 74.8241 16.6904 71.8133 11.4454 68.7807C10.4161 68.2067 9.58008 67.3408 9.04293 66.2924C8.50578 65.2439 8.29161 64.0599 8.42742 62.8898C8.56324 61.7197 9.04297 60.6161 9.80604 59.7184C10.5691 58.8206 11.5813 58.169 12.7147 57.8457C13.4655 57.6218 14.2539 57.5519 15.0324 57.6402C15.8109 57.7285 16.5635 57.9733 17.2449 58.3597C21.4467 60.5467 25.6377 62.7337 29.8505 64.9207C30.321 65.1612 30.8353 65.3252 31.3058 65.5111C31.2086 64.5155 31.1866 63.5139 31.2401 62.515C31.3049 61.7019 31.5827 60.9202 32.0456 60.2484C32.5085 59.5766 33.1402 59.0383 33.8772 58.6878C38.1119 56.7085 42.3465 54.6746 46.7016 52.9797C50.872 51.4219 55.4651 51.4219 59.6355 52.9797L66.8794 55.4619V52.597C66.8794 51.3067 67.4593 50.738 68.7505 50.738C71.7924 50.738 74.8453 50.738 77.8873 50.738C78.3104 50.6834 78.7402 50.7587 79.1194 50.9541C79.4986 51.1494 79.8093 51.4554 80.0102 51.8315V79.9562L68.0065 79.9999ZM66.8465 71.0333C66.8758 70.9292 66.8978 70.8233 66.9122 70.7162C66.9122 66.9108 66.9122 63.0617 66.9122 59.3111C66.9122 58.808 66.6495 58.7205 66.2994 58.6003L58.5523 55.954C55.026 54.6251 51.1362 54.6251 47.6099 55.954C43.5065 57.5943 39.5234 59.5188 35.4967 61.3559C35.0604 61.5713 34.7085 61.9258 34.4965 62.3635C34.2844 62.8011 34.2244 63.2969 34.3259 63.7725C34.3865 64.1255 34.5278 64.4599 34.7388 64.7495C34.9497 65.0391 35.2247 65.2762 35.5423 65.4423C35.8599 65.6084 36.2115 65.699 36.5699 65.7072C36.9283 65.7153 37.2837 65.6407 37.6086 65.4893C40.8913 64.3958 44.2615 63.2366 47.588 62.1322C47.7889 62.0261 48.0104 61.9647 48.2373 61.9522C48.4642 61.9397 48.6912 61.9764 48.9026 62.0597C49.114 62.1431 49.3048 62.2712 49.462 62.4352C49.6192 62.5992 49.7392 62.7953 49.8135 63.0099C49.8877 63.2246 49.9146 63.4527 49.8923 63.6788C49.87 63.9048 49.799 64.1233 49.6843 64.3193C49.5696 64.5154 49.4138 64.6843 49.2276 64.8146C49.0414 64.9448 48.8292 65.0332 48.6056 65.0737C45.2134 66.2328 41.8214 67.4029 38.4074 68.5073C37.6612 68.7226 36.8857 68.8185 36.1095 68.7916C34.7855 68.7916 33.4614 68.5729 32.1484 68.5839C30.7649 68.5826 29.4035 68.2368 28.1872 67.5779C24.1167 65.3909 20.0242 63.3242 15.9317 61.2137C15.4993 60.9797 15.0288 60.8242 14.542 60.7545C13.8999 60.6991 13.2586 60.8683 12.7277 61.2333C12.1967 61.5984 11.8092 62.1365 11.6315 62.7555C11.449 63.3798 11.4888 64.0481 11.7442 64.6463C11.9996 65.2445 12.4547 65.7356 13.032 66.036L28.7344 75.0355C30.7726 76.1865 33.1546 76.5741 35.453 76.129C42.3029 74.9808 49.1636 73.8654 56.0136 72.7391L66.8465 71.0333ZM76.8807 53.9639H70.0964V76.8288H76.8807V53.9639Z" fill="#3A9C3E"/>
<path d="M14.7391 25.2815H13.1743C13.1743 26.0141 13.1743 26.714 13.1743 27.4685C13.2102 27.7094 13.1898 27.9553 13.1145 28.1869C13.0391 28.4186 12.9111 28.6296 12.7403 28.8034C12.5696 28.9772 12.3608 29.1091 12.1304 29.1886C11.9001 29.2681 11.6543 29.2932 11.4126 29.2618H1.79438C1.55912 29.2899 1.32051 29.2643 1.09659 29.1869C0.872665 29.1095 0.669194 28.9823 0.50165 28.8149C0.334106 28.6475 0.206846 28.4442 0.129381 28.2204C0.051915 27.9967 0.0262512 27.7582 0.0544458 27.5231C0.0544458 18.9647 0.0544458 10.399 0.0544458 1.82603C0.0215433 1.58471 0.0451969 1.33904 0.12337 1.10836C0.201543 0.877681 0.332128 0.668292 0.50499 0.496608C0.677851 0.324924 0.888249 0.195616 1.11956 0.118917C1.35087 0.0422184 1.59678 0.0202139 1.83805 0.0545785H11.3799C11.6216 0.020647 11.8678 0.0429025 12.0994 0.119585C12.3311 0.196267 12.542 0.325281 12.7156 0.496675C12.8892 0.668068 13.0209 0.877199 13.1004 1.10776C13.18 1.33832 13.2053 1.58412 13.1743 1.82603C13.1743 2.24156 13.1743 2.65708 13.1743 3.18195H14.1155C21.6766 3.18195 29.2268 3.18195 36.777 3.18195C40.4352 3.14424 44.0414 4.04806 47.2488 5.80637C53.9783 9.45864 60.7408 13.0344 67.4594 16.6757C68.1804 17.0799 68.9964 17.2838 69.8229 17.2662C71.0594 17.2662 71.6393 17.8347 71.6393 19.0813C71.6393 28.4708 71.6393 37.8676 71.6393 47.2716C71.6393 48.551 71.0485 49.1196 69.7573 49.1196H16.6212C15.2862 49.1196 14.7391 48.551 14.7282 47.206V25.3361L14.7391 25.2815ZM32.5643 30.1694C27.7606 28.2995 23.2195 25.7954 17.9015 25.4345V39.1251C21.8298 40.3389 23.4601 41.9682 24.6857 45.8938H61.7147C62.0554 44.2292 62.8779 42.7014 64.0801 41.5C65.2824 40.2985 66.8113 39.4765 68.477 39.136V27.1076C66.8239 26.7747 65.305 25.9641 64.1087 24.7764C62.9124 23.5887 62.0913 22.0761 61.7474 20.4264H38.2433L38.1667 20.656C38.9765 21.1371 39.7752 21.651 40.6069 22.0994C40.9437 22.2739 41.323 22.3497 41.7011 22.3181C43.7624 22.0476 45.858 22.3694 47.7429 23.246C49.6277 24.1226 51.2238 25.5177 52.344 27.2678C53.4642 29.018 54.0623 31.0509 54.0683 33.1284C54.0743 35.206 53.4879 37.2422 52.3778 38.9988C51.2677 40.7554 49.6798 42.1597 47.8001 43.0471C45.9203 43.9345 43.8264 44.2684 41.7636 44.0098C39.7008 43.7511 37.7544 42.9106 36.1523 41.5865C34.5502 40.2625 33.3589 38.5097 32.7175 36.5335C32.0449 34.4745 31.9765 32.266 32.5204 30.1694H32.5643ZM61.7912 17.1896C61.4958 16.9928 61.4191 16.9272 61.3316 16.8835C55.8896 13.9675 50.455 11.0515 45.0276 8.13551C42.6226 6.86067 39.937 6.20658 37.2148 6.23278H13.9185H13.1635V21.9682C13.2401 22.0039 13.321 22.0296 13.4042 22.0447H14.575C18.2307 21.9839 21.8674 22.584 25.3095 23.8162C27.5964 24.6582 29.8505 25.6204 32.1046 26.5609C35.0919 27.7856 38.0573 29.0431 41.0446 30.2569C41.4952 30.4532 41.9892 30.5286 42.478 30.4756C42.8439 30.4147 43.1795 30.2349 43.4327 29.9641C43.686 29.6932 43.8427 29.3464 43.8786 28.9775C43.9457 28.6002 43.8893 28.2114 43.7178 27.8687C43.5463 27.5259 43.2689 27.2475 42.9266 27.0748L36.8974 23.4881C36.0813 23.0547 35.4654 22.3216 35.1795 21.4433C34.998 20.9332 34.9456 20.3862 35.0271 19.8511C35.1085 19.3159 35.3213 18.8091 35.6463 18.3761C35.9714 17.943 36.3986 17.597 36.8899 17.369C37.3812 17.141 37.9214 17.0381 38.4622 17.0693H61.7912V17.1896ZM3.19489 3.11635V26.0797H9.94637V3.11635H3.19489ZM46.1546 31.6237C46.195 31.7035 46.2466 31.7772 46.3078 31.8424C46.8276 32.315 47.2194 32.9111 47.4469 33.5755C47.6744 34.2399 47.7301 34.951 47.6089 35.6427C47.4877 36.3344 47.1936 36.9842 46.7538 37.5319C46.314 38.0795 45.7427 38.5072 45.0932 38.7752C44.8525 38.8954 44.743 39.2345 44.5242 39.4203C44.1193 39.7812 43.7036 40.2951 43.233 40.3717C42.9737 40.3913 42.7134 40.3455 42.4764 40.2385C42.2393 40.1315 42.033 39.9667 41.8762 39.7593C41.5458 39.1264 41.0092 38.625 40.3552 38.3378C40.0935 38.1641 39.8545 37.9584 39.6439 37.7254C39.493 37.5888 39.3708 37.4235 39.2841 37.2394C39.1974 37.0552 39.148 36.8558 39.1389 36.6524C39.1297 36.4491 39.1609 36.246 39.2306 36.0548C39.3004 35.8636 39.4075 35.6881 39.5455 35.5385C39.8277 35.2441 40.2124 35.0696 40.6199 35.0512C41.0275 35.0329 41.4265 35.1721 41.7339 35.44C42.0911 35.7291 42.5107 35.9312 42.9595 36.0305C43.3055 36.0814 43.6577 35.9958 43.9417 35.7917C44.2256 35.5876 44.4188 35.281 44.4805 34.937C44.5461 34.3356 43.9552 33.767 43.1564 33.6795C42.9486 33.6907 42.7405 33.6907 42.5327 33.6795C41.5647 33.5585 40.6067 33.3685 39.6658 33.1109C38.2433 32.6188 36.8755 32.0174 35.4858 31.405C35.0248 33.2964 35.3024 35.2923 36.2618 36.9866C37.2213 38.6808 38.7907 39.946 40.6507 40.5248C41.6829 40.8544 42.7726 40.9651 43.8502 40.8499C44.9277 40.7347 45.9694 40.3962 46.9086 39.8559C47.8478 39.3156 48.6638 38.5855 49.3046 37.7122C49.9454 36.8388 50.3969 35.8415 50.6301 34.7839C51.4508 31.2192 49.1091 26.5718 46.2531 26.1563C46.772 26.9819 47.0389 27.9407 47.0215 28.9156C47.004 29.8904 46.7027 30.8391 46.1546 31.6456V31.6237ZM65.0301 45.8392H68.477V42.4821C67.6551 42.6924 66.9052 43.1202 66.3063 43.7206C65.7074 44.3211 65.2817 45.0718 65.0739 45.8938L65.0301 45.8392ZM21.2607 45.8392C21.0534 45.0134 20.625 44.2597 20.0217 43.6586C19.4183 43.0576 18.6627 42.632 17.8358 42.4275V45.8392H21.2607ZM65.0301 20.2842C65.2377 21.108 65.6648 21.8603 66.2659 22.461C66.8671 23.0617 67.6197 23.4885 68.4441 23.6959V20.2842H65.0301Z" fill="#333333"/>
<path d="M26.8636 34.6856C26.3165 34.6856 25.7694 34.6856 25.2223 34.6856C24.8274 34.6857 24.4482 34.5313 24.166 34.2553C23.8837 33.9794 23.7208 33.6039 23.7122 33.2094C23.6943 33.0137 23.7156 32.8163 23.775 32.629C23.8344 32.4416 23.9305 32.268 24.0579 32.1183C24.1853 31.9686 24.3414 31.8458 24.5169 31.7571C24.6924 31.6685 24.8838 31.6157 25.08 31.602C26.2974 31.5363 27.5175 31.5363 28.7349 31.602C29.1318 31.6354 29.4994 31.8243 29.7576 32.1274C30.0159 32.4305 30.1439 32.8234 30.1136 33.2204C30.0915 33.6131 29.921 33.9828 29.6366 34.2547C29.3523 34.5267 28.9752 34.6807 28.5816 34.6856H26.8636Z" fill="#333333"/>
<path d="M59.2087 34.6967C58.6616 34.6967 58.1145 34.6967 57.5674 34.6967C57.1599 34.691 56.7707 34.5267 56.4826 34.2388C56.1945 33.9509 56.0301 33.562 56.0245 33.1548C56.023 32.9523 56.0615 32.7515 56.1377 32.5639C56.2139 32.3763 56.3263 32.2056 56.4686 32.0614C56.6108 31.9172 56.7802 31.8024 56.9668 31.7236C57.1535 31.6448 57.3538 31.6035 57.5564 31.6021C58.6506 31.6021 59.7448 31.6021 60.9047 31.6021C61.3168 31.6021 61.7121 31.7656 62.0035 32.0568C62.2949 32.348 62.4586 32.743 62.4586 33.1548C62.4586 33.5666 62.2949 33.9616 62.0035 34.2528C61.7121 34.544 61.3168 34.7076 60.9047 34.7076C60.3029 34.7076 59.7558 34.6967 59.2087 34.6967Z" fill="#333333"/>
</g>
<defs>
<clipPath id="clip0_106_2212">
<rect width="80.0433" height="80" fill="white"/>
</clipPath>
</defs>
</svg>
